<svg width="80" height="34" viewBox="0 0 80 34" fill="none" xmlns="http://www.w3.org/2000/svg">
<g filter="url(#filter0_d_567_5877)">
<path d="M6.20578 15.4L6.18578 15.42C6.20578 15.4 6.20578 15.4 6.20578 15.38V15.28C6.42578 14.1 6.84578 12.94 7.26578 11.8C7.70578 10.6 8.12578 9.42 8.68578 8.28C9.20578 7.2 9.80578 6.14 10.4858 5.16C11.0858 4.26 11.8058 3.28 12.7258 2.68C13.0058 2.6 13.2858 2.3 13.6458 2.36C14.0058 2.42 14.0058 2.8 13.9258 3.16C14.0258 2.88 14.0858 2.58 13.8458 2.38C13.5258 2.14 12.9058 2.52 12.6458 2.7C12.5258 2.74 12.4058 2.82 12.3058 2.9C12.3658 2.84 12.4458 2.78 12.5458 2.72L12.4458 2.76L12.7258 2.6C13.0458 2.42 13.7658 2.02 14.0058 2.54C14.1858 2.96 13.9058 3.66 13.7658 4.06C13.5058 4.74 13.1858 5.38 12.8458 6.02C12.9058 5.88 13.1458 5.34 13.1458 5.34C13.0058 5.32 12.3658 6.8 12.2458 6.84H12.2658C12.1858 6.9 12.1258 6.96 12.1258 6.98C12.0858 7.22 12.3658 7.16 12.5258 7.14C13.2058 7.06 14.0858 6.48 14.5258 5.98C15.0058 5.44 15.1858 4.62 15.1858 3.9V3.88C15.1658 2.52 14.2258 0.799999 12.6058 0.899999C11.7058 0.939999 10.8658 1.82 10.2858 2.42C9.86578 2.9 9.46578 3.42 9.10578 3.94C8.94578 4.18 8.78578 4.4 8.64578 4.64C8.48578 4.86 8.16578 5.2 8.08578 5.46C8.08578 5.46 8.18578 5.34 8.26578 5.26C8.04578 5.6 7.84578 5.96 7.64578 6.3C7.62578 6.28 7.76578 6 7.76578 6C7.58578 5.96 6.76578 7.6 6.66578 7.78C6.30578 8.44 5.98578 9.1 5.76578 9.8C5.52578 10.58 5.20578 11.32 4.96578 12.08C4.84578 12.46 4.72578 12.82 4.64578 13.2C4.60578 13.38 4.56578 13.54 4.54578 13.72C4.54578 13.74 4.50578 14.06 4.54578 14.02C4.50578 14.16 4.50578 14.34 4.48578 14.48C4.48578 14.48 4.48578 14.14 4.50578 14.1C4.42578 14.2 4.48578 14.58 4.46578 14.62C4.36578 15.38 4.20578 16.18 4.46578 16.92C4.80578 17.94 5.64578 18.78 6.56578 19.32C7.04578 19.62 7.68578 19.96 8.28578 19.92C8.98578 19.88 9.66578 19.3 10.1858 18.88C11.7058 17.6 13.0858 15.8 13.3458 13.76C13.3658 13.62 13.4658 12.92 13.2258 12.9C13.0058 12.88 12.8458 13.36 12.7658 13.48C12.1658 14.46 11.4658 15.38 10.6858 16.22C9.88578 17.1 8.88578 18.04 7.66578 18.32C7.50578 18.36 7.32578 18.38 7.14578 18.38C6.90578 18.36 6.68578 18.3 6.50578 18.12C6.40578 18.02 6.30578 17.68 6.18578 17.62C6.18578 17.52 6.16578 17.42 6.14578 17.36L6.08578 17.24C6.06578 16.64 6.08578 16.08 6.18578 15.46V15.44C6.18578 15.42 6.20578 15.42 6.20578 15.4ZM9.72578 5.62C8.94578 6.9 8.28578 8.22 7.62578 9.58C7.24578 10.38 6.86578 11.2 6.56578 12.06C6.98578 10.72 7.48578 9.44 8.08578 8.16C8.80578 6.62 9.76578 5.12 10.9058 3.88C10.4458 4.44 10.0458 5.08 9.72578 5.62ZM11.7858 3.42C11.5058 3.7 11.2458 4.02 11.0058 4.32C11.3858 3.82 11.7858 3.32 12.2858 2.92C12.1058 3.08 11.9258 3.28 11.7858 3.42ZM13.8258 3.58C13.8658 3.46 13.9058 3.32 13.9258 3.16C13.8858 3.34 13.8058 3.52 13.8058 3.66C13.8258 3.62 13.8258 3.6 13.8258 3.58ZM24.7063 12.02C24.7063 12.02 24.7263 12.04 24.7063 12C24.6063 11.86 24.4663 11.96 24.3263 12C23.7463 12.12 23.1463 12.26 22.5463 12.36C22.7663 11.64 22.9863 10.88 23.0663 10.14C23.1063 9.86 23.1263 9.56 23.0663 9.28C23.0263 9.1 22.9663 8.92 22.8663 8.76C22.8663 8.76 22.6263 8.46 22.6863 8.62L22.6663 8.6L22.5863 8.44L22.6663 8.52C22.6863 8.4 22.3463 8.18 22.3463 8.18C21.8463 7.68 21.1663 7.3 20.4863 7.68C20.0663 7.92 19.7263 8.32 19.4463 8.72C19.3463 8.86 19.2463 9.02 19.1663 9.18C19.0863 9.34 18.9663 9.86 18.8463 9.94C18.7463 10.02 18.4463 10.04 18.3063 10.12C18.1063 10.2 17.9263 10.3 17.7663 10.42C17.3863 10.66 17.0863 11 16.8063 11.34C16.3263 11.98 16.0863 12.7 15.7463 13.34C15.1063 14.56 15.8063 16.16 16.9863 16.74C17.3663 16.92 17.8063 17 18.2063 16.96C18.6263 16.9 19.0263 16.68 19.3463 16.44C19.6463 16.22 20.3063 15.82 20.4263 15.48C20.4263 15.46 20.3863 15.48 20.3263 15.54L20.9063 14.86C20.9263 14.88 20.7663 15.08 20.7663 15.08C20.9063 15.14 21.6263 14.08 21.7063 14C21.8463 13.76 21.9863 13.5 22.1463 13.26C22.2863 13.08 22.2463 13.1 22.4463 13.02C22.4263 13.04 22.6863 12.96 22.7263 12.96C22.9463 12.92 25.2863 12.76 24.7063 12.02ZM17.7863 16.06H17.7663C16.1063 16.3 18.0263 12.78 18.0663 12.58L17.9463 12.76C18.2463 12.16 18.5263 11.68 18.6663 11.52C18.8863 12.52 19.9663 12.9 20.8463 13.02C20.2663 14.18 19.1863 15.8 17.7863 16.06ZM21.7263 10.52C21.5863 11.08 21.4663 11.82 21.1663 12.32C21.0663 12.52 21.1263 12.46 20.9263 12.5C20.8063 12.54 20.5463 12.5 20.4263 12.48C20.2063 12.46 19.9463 12.42 19.7863 12.28C19.5063 12.04 19.5463 11.66 19.5863 11.32C19.6263 10.98 19.7263 10.66 19.8463 10.34C19.9063 10.22 20.2863 9.58 20.2263 9.46C20.2063 9.4 19.9863 9.76 19.9663 9.78C20.0863 9.56 20.2063 9.44 20.3063 9.3C20.2863 9.3 20.3063 9.28 20.3263 9.24V9.26L20.3463 9.22C20.3463 9.22 20.3463 9.2 20.3663 9.2C20.6663 8.8 21.4063 7.9 21.8063 8.52C22.1063 9.04 21.8263 10.02 21.7263 10.52ZM20.3463 9.22L20.3663 9.2C20.3663 9.22 20.3463 9.22 20.3463 9.22ZM36.3388 12.12V12.1C36.2188 11.44 35.3188 12.54 35.1988 12.64C34.6188 13.28 34.0788 13.98 33.5588 14.68C33.0388 15.4 32.5388 16.12 31.9988 16.84C31.7388 17.2 31.4788 17.54 31.1788 17.86C31.0788 17.98 30.8388 18.32 30.6588 18.32C29.9588 18.32 30.4988 15.5 30.5788 15.06C30.6988 14.28 30.7588 13.24 31.2588 12.62C31.3788 12.46 32.7388 10.72 32.7388 10.72C32.6988 10.7 32.5388 10.9 32.4388 11.02L33.2988 9.86L33.3588 9.78H33.3788H33.3588L33.5188 9.56C33.5388 9.58 33.5188 9.62 33.4988 9.66L33.6788 9.46L34.1988 8.78C34.5788 8.24 34.9388 7.66 35.2788 7.1C35.8188 6.18 36.5588 4.86 36.1588 3.74C35.8588 2.92 34.7588 2.76 34.0188 3.04C33.4788 3.24 33.0188 3.66 32.6388 4.1C32.4388 4.36 32.2388 4.64 32.0588 4.94C31.9988 5.02 31.7388 5.66 31.6788 5.74H31.6988C31.5788 5.96 31.4588 6.18 31.3788 6.4C31.4188 6.24 31.5188 5.92 31.5988 5.86C31.4388 5.98 31.2988 6.56 31.2588 6.62C30.4988 8.28 29.8388 9.96 29.3588 11.72C28.8188 11.1 27.9588 10.04 27.0188 10.42C26.2388 10.74 25.6588 11.56 25.2588 12.28C24.8988 12.92 24.7988 13.58 24.5388 14.2C24.0788 15.26 23.8588 17.44 25.4188 17.76C25.8988 17.86 26.3388 17.56 26.7188 17.3C27.3988 16.8 28.0388 16.22 28.6388 15.62C28.5388 16.68 28.3188 18.28 29.1788 19.12C30.2388 20.2 31.2988 18.74 31.9388 17.94C32.7588 16.9 33.3988 15.74 34.2188 14.74C34.6188 14.26 35.0188 13.78 35.4388 13.34C35.7588 13.02 36.3988 12.62 36.3388 12.12ZM28.9788 13.44C28.9588 13.5 28.9588 13.54 28.9588 13.54C28.8788 14.02 28.8788 14.44 28.5388 14.78C28.2388 15.1 27.9188 15.4 27.5988 15.7C27.2988 15.98 26.5788 16.8 26.1188 16.76C25.5588 16.7 25.9788 15.42 26.2588 14.64C25.9588 15.44 25.4788 16.74 26.1388 16.78C26.3188 16.8 26.6188 16.64 26.8788 16.42C26.6388 16.64 26.2388 16.94 25.9988 16.82C25.5388 16.62 25.9388 15.48 26.0188 15.16C26.2788 14.24 26.6588 13.36 27.0988 12.52C27.3188 12.1 27.6388 11.42 28.0588 11.38L27.9588 11.44C27.9788 11.42 27.9988 11.42 28.0188 11.42C28.1588 11.38 28.2988 11.48 28.3988 11.56C28.6588 11.74 28.8188 12.08 28.9988 12.34C29.1988 12.66 29.0588 13 28.9788 13.36V13.44ZM32.1988 8.82C32.1988 8.8 32.1988 8.76 32.2188 8.74V8.72C32.2388 8.66 32.2588 8.64 32.2588 8.64V8.62C32.7188 7.34 33.2188 6.06 33.9388 4.9C34.1188 4.6 34.6388 3.68 35.0988 3.94C35.2788 4.04 35.3188 4.3 35.3188 4.48C35.3988 5.68 34.4388 7.1 33.8388 8.06C33.1388 9.18 32.3588 10.28 31.5388 11.3L31.9788 10.84L32.3788 10.34L31.3588 11.66L31.2188 11.84L31.1388 11.92C31.1588 11.8 31.2588 11.68 31.3588 11.54C31.3188 11.58 31.2788 11.62 31.2588 11.66C31.5188 10.8 31.7988 9.94 32.0988 9.08C32.0788 9.1 32.0988 9.06 32.1188 8.98L32.1788 8.88C32.1788 8.86 32.1788 8.84 32.1988 8.82ZM30.5188 10.46C30.4788 10.56 30.3588 11.02 30.2988 11.08C30.2988 11.1 30.2788 11.12 30.2588 11.12C30.4188 10.92 30.3188 10.66 30.3988 10.42C30.4388 10.3 30.6388 10.08 30.6788 9.92C30.6788 10.08 30.5788 10.36 30.5188 10.46ZM27.3388 16C27.8388 15.56 28.3188 15.1 28.7788 14.62C28.7388 14.88 28.1188 15.32 27.8988 15.52C27.6388 15.78 27.3388 16.04 27.0388 16.28H27.0188L27.3388 16ZM30.8788 8.64C30.7988 8.88 30.6988 9.1 30.5788 9.32C30.6788 9.02 30.7388 8.72 30.8788 8.44C30.9988 8.22 31.1388 7.94 31.2388 7.68C31.1388 8 30.9788 8.34 30.8788 8.64ZM32.1788 8.88L32.0988 9.08C32.0988 9.06 32.1188 9.02 32.1188 8.98L32.1788 8.88ZM27.8588 11.52C27.7788 11.58 27.7188 11.66 27.6988 11.66C27.7388 11.66 27.7988 11.58 27.8588 11.52ZM28.4188 11.48C28.4588 11.5 28.4988 11.52 28.5388 11.56L28.4188 11.48ZM32.3788 11.12C32.3788 11.1 32.3988 11.08 32.4188 11.06C32.3988 11.1 32.3788 11.12 32.3788 11.12ZM32.4188 11.06L32.4388 11.02C32.4388 11.04 32.4188 11.06 32.4188 11.06ZM43.7303 12.06C43.7303 12.08 43.7303 12.08 43.7103 12.06V12.04C43.3903 11.5 42.9703 12.24 42.7903 12.5C42.4503 12.96 42.1303 13.4 41.7703 13.82C41.4703 14.18 41.1503 14.54 40.9103 14.92C40.9103 14.96 40.8703 15.06 40.8703 15.06C40.7903 15.18 40.6703 15.28 40.5703 15.4C40.3903 15.58 40.2103 15.78 40.0103 15.96C39.7103 16.24 38.0303 17.82 37.8103 16.8C37.6903 16.3 37.8503 15.68 37.9503 15.2C38.0103 14.94 38.0703 14.7 38.1103 14.44C38.1503 14.24 38.0903 14.04 38.1903 13.84C38.2503 13.72 38.2703 13.74 38.4103 13.7L38.7503 13.58C38.9703 13.5 39.1903 13.42 39.3903 13.3C39.6903 13.12 39.9703 12.9 40.2303 12.68C40.8503 12.16 41.5103 11.54 41.7703 10.76C41.9103 10.32 41.9303 9.84 41.6503 9.46C41.3903 9.12 40.9503 8.94 40.5503 8.86C39.4703 8.66 38.6503 9.28 38.0303 10.1C37.2703 11.04 36.7303 12.2 36.4703 13.38C36.3303 13.96 36.2503 14.54 36.1503 15.14C36.0503 15.74 35.9903 16.3 36.3103 16.86C36.2903 16.66 36.2503 16.48 36.2503 16.3C36.2503 16.2 36.2903 16.1 36.2903 16.02C36.2903 15.98 36.2503 15.86 36.2503 15.8C36.2503 15.62 36.2903 15.48 36.3303 15.3C36.3503 15.12 36.3303 14.94 36.3503 14.76C36.3703 14.56 36.4503 14.4 36.5303 14.22C36.5903 14.06 36.6103 13.92 36.6703 13.76C36.7303 13.62 36.7703 13.46 36.8303 13.3C36.8503 13.2 36.9503 13.08 37.0103 12.96C36.9503 13.14 36.8303 13.3 36.7903 13.46C36.7303 13.7 36.7703 13.96 36.7503 14.2C36.7103 14.46 36.6303 14.72 36.5903 15C36.5503 15.26 36.4303 15.5 36.3903 15.76C36.3503 16 36.2703 16.18 36.2903 16.42C36.2903 16.56 36.3103 16.7 36.3303 16.82C36.3503 16.98 36.4503 17.08 36.5503 17.2C36.8903 17.6 37.3503 17.92 37.8703 18.06C38.2303 18.16 38.5503 18.14 38.8903 17.96C39.3703 17.7 39.7903 17.3 40.1503 16.92C40.4903 16.54 40.7503 16.12 41.0503 15.72C41.3303 15.36 41.6703 15.02 41.9503 14.66L43.0303 13.26L43.6503 12.44C43.7503 12.32 43.8103 12.22 43.7303 12.06ZM38.7703 12.28C38.7903 12.24 38.7903 12.22 38.7903 12.22C39.0903 11.58 39.3103 10.9 39.7303 10.28L40.0903 9.8C40.1703 9.7 40.3103 9.52 40.4503 9.48C40.7503 9.42 40.8303 9.94 40.8103 10.14L40.7303 10.56C40.7103 10.68 40.7503 10.76 40.7303 10.86C40.6903 10.98 40.5903 11.04 40.5303 11.14L40.1903 11.58C39.7303 12.12 39.1503 12.58 38.5103 12.92C38.6103 12.7 38.6703 12.48 38.7703 12.28ZM55.7613 6.2C55.6813 5.56 54.7013 5.08 54.1613 5.46C53.7213 5.76 53.3213 6.58 53.0013 7.06L51.0413 10.02C50.7413 10.48 50.4413 10.94 50.1213 11.38C50.0413 11.52 49.2813 12.7 49.2813 12.7C49.3613 12.72 49.5413 12.44 49.5813 12.4C49.0413 13.16 48.3413 13.96 47.6813 14.72C47.4613 15 46.1413 16.74 45.6613 16.52C45.5013 16.44 45.4613 16.18 45.4413 16.04C45.2813 14.98 45.6813 13.92 45.8013 12.9L45.7213 13.1L45.8413 12.6C45.8413 12.66 45.8213 12.72 45.8213 12.78L45.8413 12.66L45.7813 13.26C46.0613 12.06 46.4613 10.9 46.9213 9.78C47.0413 9.5 48.2013 6.6 48.4413 6.34C48.4013 6.36 48.3413 6.44 48.2813 6.52C48.6613 5.82 49.0613 5.16 49.5213 4.52C49.4213 4.68 49.2413 4.98 49.2413 4.98C49.3213 5 50.1213 3.9 50.1213 3.78C50.1213 3.76 50.0613 3.8 50.0013 3.84C50.2013 3.58 50.3413 3.44 50.1813 3C49.9413 2.5 49.2413 1.88 48.6613 2.18C48.5413 2.26 48.4613 2.36 48.3813 2.46C47.9613 3 47.6213 3.7 47.3413 4.3C47.2413 4.54 47.1613 4.58 47.0013 4.76C46.7413 5.06 46.6013 5.46 46.4213 5.8C46.0613 6.52 45.7813 7.28 45.4613 8.02C45.1413 8.7 44.8813 9.4 44.6613 10.12C44.5613 10.4 44.4813 10.68 44.4013 10.96C44.3213 11.24 44.0413 11.76 44.0813 12.06L44.2013 11.8C44.1013 12.14 44.0213 12.5 43.9413 12.86C43.9213 12.86 43.9613 12.6 43.9613 12.6C43.8813 12.6 43.7013 13.48 43.6613 13.6C43.5813 14.02 43.5213 14.44 43.4813 14.88C43.4613 15.34 43.4813 15.76 43.7013 16.18C44.1213 16.92 44.8813 17.64 45.7013 17.9C45.8413 17.94 46.0013 17.98 46.1413 17.96C46.2813 17.94 46.4213 17.88 46.5213 17.78C46.6013 17.74 46.9213 17.4 46.7013 17.56L47.0813 17.2C47.0813 17.2 46.9013 17.42 46.8413 17.46C46.9413 17.42 47.1613 17.12 47.1613 17.12C47.8213 16.4 48.4813 15.7 49.0813 14.92C49.7013 14.08 50.2613 13.16 50.8213 12.26C50.6613 12.74 50.6213 13.22 50.4813 13.7C50.4013 13.96 50.3213 14.22 50.2613 14.48C50.2213 14.58 50.1813 15.06 50.2213 15.02C50.2213 15.08 50.2213 15.12 50.2013 15.16C50.2013 15.14 50.2013 15.12 50.1813 15.1C50.1213 15.12 50.1213 15.72 50.1013 15.82C50.0213 16.1 49.9013 16.36 49.8613 16.68C49.7613 17.52 49.8213 18.5 50.3413 19.22C50.6613 19.66 51.1413 19.9 51.6813 19.94C52.2613 19.96 52.5813 19.64 52.8813 19.2C53.0813 18.9 53.2613 18.64 53.3813 18.3C53.4813 18.02 53.6813 17.48 53.5613 17.2C53.4813 17.02 53.4413 17 53.2813 17.08C53.0613 17.16 52.8013 17.64 52.6613 17.82C52.4613 18.04 52.0613 18.6 51.7213 18.64C51.5213 18.66 51.5613 18.62 51.5213 18.38C51.5013 18.24 51.5013 17.3 51.5213 17.28C51.4613 17.36 51.4413 17.44 51.4213 17.52C51.5013 16.86 51.7813 16.06 51.9813 15.36C52.2213 14.54 52.4013 13.72 52.6213 12.9C52.8613 12.06 53.1813 11.22 53.5213 10.42C53.6013 10.24 54.5013 8.26 54.6413 8.08C54.5013 8.18 53.7813 9.7 53.5413 10.2C54.0213 9.06 54.5813 7.96 55.2813 6.92C55.3013 6.92 55.0813 7.26 55.1213 7.26C55.1813 7.3 55.6613 6.56 55.6213 6.54C55.6013 6.54 55.5813 6.54 55.5613 6.56C55.6613 6.46 55.7813 6.4 55.7613 6.2ZM50.5413 15.7C50.3613 16.52 50.1613 17.62 50.3213 18.44C50.1413 17.52 50.2013 16.48 50.3613 15.56C50.4813 14.8 50.7013 14.1 50.9613 13.4C50.7413 14.2 50.7213 14.9 50.5413 15.7ZM47.2013 8.1C47.7613 6.76 48.5613 5.54 49.4013 4.38C48.5613 5.58 47.8813 6.88 47.2813 8.22C46.8213 9.28 46.4013 10.3 46.1013 11.36C46.1613 11.08 46.2213 10.8 46.3213 10.52C46.5613 9.7 46.8813 8.9 47.2013 8.1ZM46.7413 10.04C47.1013 9.06 47.5213 8.08 48.0013 7.12C47.5613 8.04 46.9613 9.48 46.7413 10.04ZM53.0813 11.36C53.0213 11.54 52.9413 11.72 52.8613 11.88L53.2213 10.96L53.0813 11.36ZM48.2813 6.54V6.52V6.54ZM49.7813 3.9C49.7813 3.92 49.7613 3.94 49.7413 3.94C49.7613 3.94 49.7813 3.92 49.7813 3.9ZM67.2317 12.04C67.1117 12.06 66.0717 12.38 66.1317 12.54C66.1317 12.56 66.1717 12.58 66.1917 12.58C65.8517 12.72 65.4117 12.74 65.0717 12.96C64.6917 13.22 64.3317 13.48 63.9317 13.7C64.2917 13.08 64.6317 12.42 64.8517 11.76C64.9317 11.52 65.3917 10.04 65.0917 9.88C65.0517 9.86 65.0317 10.04 65.0117 10.14C65.0317 9.34 64.7717 8.12 63.6917 8.04C63.0317 8 62.4117 8.82 62.0517 9.26C61.2317 10.3 60.5117 11.42 59.7917 12.5C59.5917 12.8 57.5917 16.04 57.5917 16.04C57.5917 16.04 57.7317 15.84 57.9117 15.58C57.7317 15.88 57.5517 16.2 57.3917 16.52C57.4717 16.22 58.2317 13.84 58.7117 12.44C58.7517 12.38 58.7717 12.3 58.7917 12.24L58.9117 11.9V11.92C59.0917 11.38 59.2717 10.84 59.4317 10.28C59.4317 10.34 59.3517 10.64 59.3717 10.64C59.4917 10.66 59.6517 9.82 59.5717 9.82L59.5117 9.92C59.5717 9.62 59.6717 9.48 59.4917 9.14C59.3517 8.84 59.1117 8.56 58.7717 8.48C58.1117 8.3 57.7917 8.84 57.8317 9.36C57.8317 9.44 57.9317 9.48 57.9317 9.56C57.9317 9.66 57.8317 9.84 57.8117 9.92C57.6717 10.34 57.5717 10.74 57.4117 11.14C57.3317 11.36 56.5917 13.44 56.5917 13.44C56.6317 13.42 56.6517 13.38 56.6717 13.34C56.6117 13.52 56.5517 13.7 56.4717 13.88C56.4517 13.86 56.5317 13.72 56.4917 13.72C56.2917 13.68 55.7917 15.36 55.7517 15.52C55.6717 15.9 55.5717 16.26 55.4317 16.64C55.3717 16.84 55.2917 17.04 55.2317 17.26C55.2317 17.28 55.1317 17.76 55.2317 17.58C55.2117 17.64 55.1917 17.68 55.1917 17.72C55.1917 17.7 55.1717 17.68 55.1717 17.66C55.1117 17.68 55.0717 18.1 55.0717 18.12C54.9917 18.34 54.8917 18.5 54.7917 18.7C54.5317 19.34 54.3917 20.04 54.2917 20.72C54.1317 21.76 53.6517 23.32 54.1717 24.28C54.3517 24.62 54.9117 25.32 55.3517 24.9C55.5517 24.7 55.5517 24.24 55.5717 24C55.6917 23.34 55.7917 22.66 55.9317 22L56.1117 21.08C56.1317 21.04 56.2917 20.3 56.2317 20.32C56.1917 20.36 56.1517 20.42 56.1317 20.48C56.2317 20.16 56.3717 19.86 56.4917 19.52C56.6517 19.04 56.7717 18.58 57.0117 18.14C57.2917 17.7 57.5317 17.22 57.7917 16.78C57.9917 16.42 58.1717 15.96 58.3917 15.66C58.4517 15.58 58.5717 15.54 58.6717 15.46C58.8717 15.24 59.0117 14.94 59.1717 14.7C59.4717 14.22 59.7317 13.74 60.0517 13.3C60.1917 13.1 61.7917 10.86 61.9517 10.72C61.9117 10.74 61.8717 10.76 61.8317 10.8C61.9917 10.6 62.1717 10.42 62.3317 10.26C62.3517 10.28 62.2117 10.4 62.2317 10.42C62.2717 10.44 63.1917 9.72 63.3517 9.7C63.7917 9.62 63.6317 10.46 63.5717 10.68C63.4717 11.14 63.2117 11.58 62.9917 11.98C62.8717 12.2 62.7517 12.4 62.6517 12.62C62.6317 12.64 62.4717 13.02 62.5317 12.98L62.4117 13.16C62.4517 13.1 62.4717 13.02 62.4717 13.02C62.3917 13.02 62.2917 13.36 62.2717 13.42C62.1517 13.62 61.9917 13.78 61.8317 13.94C61.4117 14.42 61.0317 14.92 60.6117 15.38C60.2917 15.72 59.8717 16.32 59.3917 16.44C59.0517 16.52 58.7917 16.34 58.9717 16.88C59.0917 17.26 59.5317 18.14 60.0117 18.14C60.4517 18.14 60.9917 17.48 61.2517 17.2C61.5517 16.86 61.8917 16.54 62.2117 16.18C62.2917 16.06 63.2117 14.96 63.3517 14.9H63.3317C63.5317 14.8 63.7317 14.88 64.0117 14.68C64.1717 14.56 64.2517 14.44 64.4317 14.32C64.5717 14.24 64.6317 14.14 64.6917 14.08C64.6917 14.08 64.6917 14.1 64.7117 14.1C64.9117 13.9 65.1917 13.96 65.4517 13.78C65.7717 13.56 66.1717 13.28 66.4517 13.02C66.8117 12.7 67.3117 12.52 67.4717 11.98C67.3917 12 67.2917 12 67.2317 12.04ZM56.9917 14.08V14.1C56.9717 14.36 56.7917 14.66 56.6917 14.9C56.5517 15.28 56.4317 15.66 56.3117 16.04C56.0517 16.84 55.7517 17.64 55.4317 18.4C55.1717 19.04 54.9317 19.74 54.7517 20.44C54.9717 19.46 55.3317 18.5 55.6117 17.58C55.8717 16.74 56.2717 15.92 56.5917 15.1C56.6317 15 57.0117 14.2 56.9717 14.04C56.9917 14.06 56.9917 14.08 56.9917 14.08ZM57.8717 14.68C57.8117 14.92 57.7517 15.14 57.6717 15.34C57.7317 15.14 57.7917 14.9 57.8717 14.68ZM60.6117 11.4L60.2317 11.96C60.3517 11.78 60.4717 11.58 60.6117 11.4ZM63.8717 13.82C63.8917 13.76 63.9917 13.74 64.0517 13.7L63.8717 13.82ZM59.0917 11.48C59.0717 11.5 59.0517 11.56 59.0317 11.64L59.0917 11.48ZM58.9517 11.82L59.0317 11.64L58.9517 11.82ZM59.9917 12.32V12.3C60.0117 12.28 60.0117 12.28 60.0117 12.26C60.0317 12.24 60.0117 12.28 59.9917 12.32ZM58.9517 11.82C58.9517 11.86 58.9317 11.88 58.9117 11.9L58.9517 11.82ZM54.7117 20.62C54.7117 20.6 54.7117 20.6 54.7317 20.58C54.7317 20.6 54.7317 20.6 54.7117 20.62ZM57.9917 14.44C57.9917 14.46 57.9717 14.46 57.9717 14.46L57.9917 14.44ZM75.1298 12.3C75.0698 12.02 74.9098 11.98 74.7098 12.06C74.3298 12.24 73.9498 12.64 73.5898 12.88C72.7698 13.4 71.9498 13.82 71.0698 14.26C71.0698 14.24 71.0498 14.2 71.0298 14.14C71.0498 14.24 71.0298 14.28 71.0098 14.3C70.8098 13.44 70.6098 12.58 70.4498 11.7C70.5298 12.08 70.7098 12.72 70.8498 13.26C70.6698 12.42 70.4498 11.38 70.4698 11.38C70.4298 11.4 70.4298 11.44 70.4298 11.48C70.3898 11.24 70.3298 10.94 70.3698 10.68C70.3898 10.38 70.5498 10.12 70.6498 9.84C70.6298 9.98 70.5898 10.16 70.5898 10.16C70.7098 10.18 70.7898 9.44 70.7898 9.36C70.7698 9.24 70.5098 8.86 70.5098 8.96C69.9698 8.46 68.9098 9.56 68.7498 10.04C68.6298 10.36 68.6298 10.7 68.6498 11.04C68.6698 11.38 68.7698 11.68 68.8698 12C68.9298 12.24 68.8498 12.4 68.8698 12.66C68.9098 13.06 69.0498 13.46 69.1298 13.84C69.2098 14.14 69.4698 14.74 69.4098 15.02C69.3698 15.3 68.7698 15.54 68.5098 15.7C68.1698 15.92 67.8298 16.18 67.4898 16.44C66.8898 16.9 66.2498 17.48 66.0098 18.22C65.9698 18.32 65.8298 18.76 65.9698 18.84C65.9898 18.86 66.0498 18.52 66.0698 18.48C65.8098 19.8 67.1098 20.44 68.3298 20.46C69.7098 20.5 70.6698 19.7 71.1498 18.46C71.3498 17.92 71.4098 17.36 71.3898 16.8C71.3898 16.42 71.3498 16.06 71.2898 15.7C71.2498 15.38 71.2098 15.4 71.4298 15.22C71.5898 15.1 71.8298 15.02 71.9898 14.94C72.6298 14.6 73.2098 14.2 73.7898 13.78C74.2098 13.48 75.2098 12.96 75.1298 12.32V12.3ZM67.0498 19.18C66.5298 19.02 67.0498 18.2 67.2298 17.94C67.5298 17.54 67.9698 17.24 68.3698 16.96L68.9698 16.56C69.0298 16.52 69.4098 16.22 69.2898 16.26L69.5298 16.12L69.3898 16.24C69.4298 16.22 69.4898 16.2 69.5298 16.16C69.5498 16.64 69.5498 17.12 69.4098 17.6C69.3898 17.68 69.0098 18.48 68.8498 18.64L68.9498 18.56C68.7698 18.78 68.5698 18.96 68.3298 19.1C68.3298 19.08 68.5098 18.96 68.4898 18.94L67.9298 19.16C67.6498 19.22 67.3298 19.28 67.0498 19.18ZM69.5698 19.76C69.0498 19.98 68.5498 20.08 68.0098 20.1C68.9898 20.04 70.0098 19.56 70.5898 18.74C70.3698 19.18 70.0898 19.52 69.5698 19.76ZM71.0298 14.08C71.0098 13.94 70.9698 13.74 70.9098 13.52C70.9498 13.74 70.9898 13.96 71.0298 14.08ZM71.2898 16.16C71.2698 16.14 71.2698 16.1 71.2698 16.06C71.2698 16.1 71.2898 16.14 71.2898 16.16Z" fill="white"/>
</g>
<defs>
<filter id="filter0_d_567_5877" x="0.207031" y="0.800049" width="79.0039" height="32.5199" filterUnits="userSpaceOnUse" color-interpolation-filters="sRGB">
<feFlood flood-opacity="0" result="BackgroundImageFix"/>
<feColorMatrix in="SourceAlpha" type="matrix" values="0 0 0 0 0 0 0 0 0 0 0 0 0 0 0 0 0 0 127 0" result="hardAlpha"/>
<feOffset dy="4"/>
<feGaussianBlur stdDeviation="2"/>
<feComposite in2="hardAlpha" operator="out"/>
<feColorMatrix type="matrix" values="0 0 0 0 0 0 0 0 0 0 0 0 0 0 0 0 0 0 0.25 0"/>
<feBlend mode="normal" in2="BackgroundImageFix" result="effect1_dropShadow_567_5877"/>
<feBlend mode="normal" in="SourceGraphic" in2="effect1_dropShadow_567_5877" result="shape"/>
</filter>
</defs>
</svg>
